<svg width="145" height="1622" viewBox="0 0 145 1622" fill="none" xmlns="http://www.w3.org/2000/svg">
<path id="curve" d="M74 2C67.6972 47.0194 68.6945 74.0978 84.8838 108.5C91.591 122.753 103.5 131.5 116.134 162.856C134.544 208.547 108.367 266.381 84.8838 304.961C65.5417 336.738 36.2395 367.991 27.4823 405.208C20.2043 436.14 14.089 465.562 30.7718 494.436C34.6151 501.088 38.9591 507.774 43.8487 514.112M43.8487 514.112C53.26 526.311 64.6929 537.219 78.4693 544.107C103.182 556.463 128.663 553.275 134.062 522.232C138.469 496.888 119.804 484.655 96.3148 480.867C75.6968 477.541 52.6386 494.796 43.8487 514.112ZM43.8487 514.112C42.6769 516.687 41.7587 519.298 41.1337 521.903C33.101 555.372 33.0014 596.806 40.8047 630.62C46.8276 656.719 59.4572 683.057 71.3969 706.936C83.3996 730.942 92.3082 750.398 94.0121 777.66C95.4221 800.219 90.3261 809.419 73.3706 823.548C36.9653 853.886 30.0497 897.92 41.1337 941.148C46.1957 960.89 56.3387 978.266 62.1864 997.48C62.9844 1000.1 63.7503 1002.87 64.4602 1005.75M64.4602 1005.75C72.3858 1037.86 73.3425 1083.61 34.308 1092.79C15.9214 1097.12 5.90692 1068.68 3.14014 1056.03C-1.94169 1032.8 5.70841 1019.95 26.002 1010.06C37.4612 1004.48 52.0212 1006.31 64.4602 1005.75ZM64.4602 1005.75C97.5164 1004.26 113.175 1035.5 126.66 1060.88C132.76 1072.37 134.587 1085.91 138.009 1098.39C148.499 1136.61 144.796 1154.5 104.5 1207C64.2038 1259.5 125.03 1269.57 138.009 1323C149.322 1369.57 121.138 1380.97 104.5 1412C75.4769 1466.12 83.9837 1559.1 74 1620" stroke="black" stroke-width="3" stroke-linecap="round"/>
</svg>
