<svg width="593" height="538" viewBox="0 0 593 538" fill="none" xmlns="http://www.w3.org/2000/svg">
    <path
        d="M16.836 43.4658C48.9728 2.14704 108.169 -5.48954 152.869 8.89257C190.5 21 198.315 70.8884 236.478 81.2026C285.895 94.5587 353.967 126.552 404.147 99.2801C500.158 47.1 583.461 160.977 591.249 248.871C594.196 282.136 565.363 315.998 539.954 333.384C532.339 338.594 518.563 350 508.092 345.812C471.958 331.358 458.982 272 420.868 266.045C408.051 264.042 301.428 257.639 321.894 295.647C336.301 322.404 340.492 354.51 349.01 383.549C358.701 416.585 379.641 459.817 367.54 494.726C347.427 552.744 253.906 536.341 210.943 522.746C140.701 500.517 -19.7156 392.953 39.8848 299.488C62.3951 264.188 128.572 237.871 131.854 191.927C134.894 149.366 58.6039 139.324 28.5864 131.82C-8.57014 122.53 -1.4117 66.9271 16.836 43.4658Z"
        stroke="black"
        stroke-width="3"
        stroke-linecap="round"
    />
</svg>
